<svg xmlns="http://www.w3.org/2000/svg" viewBox="0 0 216.82 45.11"><defs><style>.cls-1{fill:#1070b7;}</style></defs><title>crack hire logo</title><g id="Layer_2" data-name="Layer 2"><g id="Layer_2-2" data-name="Layer 2"><path class="cls-1" d="M30.47,12.91a73.42,73.42,0,0,0-7.56-1.08c-2.44-.23-4.73-.31-6.82-.31-6.43-.15-11.7,2.07-13.22,5.9-.91,2.3-.26,4.62.47,7.21A27.05,27.05,0,0,0,10.06,36.1,32.18,32.18,0,0,1,1.75,25.71,14.47,14.47,0,0,1,0,18.54a8.69,8.69,0,0,1,1.08-4,8.11,8.11,0,0,1,2.62-2.65,11.46,11.46,0,0,1,5.74-1.59,34.89,34.89,0,0,1,7.86.26C20.81,11.05,25.26,11.8,30.47,12.91Z"/><path class="cls-1" d="M3.83,20.16a8.91,8.91,0,0,0,1,2.9c.21.32,1.12,1.67,2.44,1.59a2.49,2.49,0,0,0,1.65-.91,2.5,2.5,0,0,1-1.55,2.41,2.49,2.49,0,0,1-2.09-.49,4.45,4.45,0,0,1-1.47-2.88A10.86,10.86,0,0,1,3.58,19C3.63,19.24,3.71,19.66,3.83,20.16Z"/><path class="cls-1" d="M.07,13.7,3,11.14a27.71,27.71,0,0,1,.94-3.52C5.52,3,7.89.12,7.73,0A20.64,20.64,0,0,0,4.29,4.43,34.85,34.85,0,0,0,.07,13.7Z"/><path class="cls-1" d="M10.78,5.45c-.49-.64-2.46-.2-3.54.94C6.69,7,6.07,8,6.43,8.57S8.59,9,9.66,8.12C10.57,7.38,11.21,6,10.78,5.45Z"/><path class="cls-1" d="M12.09,32.44c0-10.64,7.26-18.26,16.07-18.26A9.1,9.1,0,0,1,36.33,19l-5,3.86c-1.1-1.66-2.2-2.39-3.58-2.39-4.31,0-8.17,5-8.17,11.47,0,4.32,1.65,6.8,5.69,6.8a7.53,7.53,0,0,0,4.59-2.11l3,4.68a13.79,13.79,0,0,1-9.18,3.76C16.78,45.11,12.09,40.52,12.09,32.44Z"/><path class="cls-1" d="M40.74,21.61h6l-.18,4.5h.18c1.75-2.94,4.41-5.05,7-5.05a4.8,4.8,0,0,1,2.48.46l-2.39,6.33a5.3,5.3,0,0,0-2.38-.36c-1.93,0-3.58,1.19-5.33,4.22L43.58,44.56H36.24Z"/><path class="cls-1" d="M55.06,36.67c0-8.73,5.88-15.61,12.21-15.61A5.36,5.36,0,0,1,72,23.91h.09l1-2.3H79l-4.59,23h-6V41.71h-.09a10.23,10.23,0,0,1-6.88,3.4C57.45,45.11,55.06,42.08,55.06,36.67Zm13.77-.56,1.47-7.34A2.88,2.88,0,0,0,67.82,27c-2.66,0-5.14,3.58-5.14,8.72,0,2.38.83,3.39,2.11,3.39S67.64,38.59,68.83,36.11Z"/><path class="cls-1" d="M80.58,35.56c0-7.71,5.88-14.5,13.77-14.5a8,8,0,0,1,6.24,2.85l-4,4.31a3.52,3.52,0,0,0-2.67-1.28c-3.3,0-5.78,3.85-5.78,8.53,0,2.3,1.1,3.77,3.31,3.77A4.9,4.9,0,0,0,94.54,38l3,4.5a12.55,12.55,0,0,1-7.81,2.66C84.62,45.11,80.58,41.62,80.58,35.56Z"/><path class="cls-1" d="M106.66,12.62H114l-3.49,17.25h.19l7.52-8.26h8.08L116.85,31.8l5.41,12.76h-7.34L111.8,36l-3.12,3.12-1.11,5.42h-7.34Z"/><path class="cls-1" d="M141.18,14.73h7.34l-2.29,11.2h8.9l2.2-11.2h7.35l-6,29.83h-7.34l2.47-12.21h-8.9l-2.39,12.21h-7.34Z"/><path class="cls-1" d="M169.45,21.61h7.35l-4.59,23h-7.35Zm1-6.33a4.29,4.29,0,0,1,4.41-4.13c1.93,0,3.85,1.19,3.85,3.39a4.17,4.17,0,0,1-4.4,4.13C172.39,18.67,170.46,17.57,170.46,15.28Z"/><path class="cls-1" d="M182,21.61h6l-.19,4.5H188c1.74-2.94,4.4-5.05,7-5.05a4.8,4.8,0,0,1,2.48.46l-2.39,6.33a5.3,5.3,0,0,0-2.38-.36c-1.93,0-3.58,1.19-5.33,4.22l-2.47,12.85h-7.35Z"/><path class="cls-1" d="M209.2,21.06c5.6,0,7.62,4,7.62,8.72a14,14,0,0,1-1.28,5.51H203.15c.09,3,2.11,4.31,4.77,4.31a7.3,7.3,0,0,0,3.85-1.47l2.58,4.59a15,15,0,0,1-8.54,2.39c-5.6,0-9.55-3.76-9.55-9.91C196.26,26.75,203.05,21.06,209.2,21.06Zm1.47,9.82a5.91,5.91,0,0,0,.19-1.47c0-1.56-.65-2.75-2.57-2.75-1.75,0-3.58,1.28-4.59,4.22Z"/></g></g></svg>